<svg width="19" height="18" viewBox="0 0 19 18" fill="none" xmlns="http://www.w3.org/2000/svg">
<path d="M12.9826 11H12.185L11.9023 10.73C12.8917 9.59 13.4873 8.11 13.4873 6.5C13.4873 2.91 10.5495 0 6.92513 0C3.30077 0 0.362915 2.91 0.362915 6.5C0.362915 10.09 3.30077 13 6.92513 13C8.55054 13 10.0447 12.41 11.1956 11.43L11.4682 11.71V12.5L16.5161 17.49L18.0203 16L12.9826 11ZM6.92513 11C4.4113 11 2.38206 8.99 2.38206 6.5C2.38206 4.01 4.4113 2 6.92513 2C9.43897 2 11.4682 4.01 11.4682 6.5C11.4682 8.99 9.43897 11 6.92513 11Z" fill="#1E99C7"/>
</svg>
